<?xml version="1.0" encoding="utf-8"?>
<!-- Generator: Adobe Illustrator 27.4.0, SVG Export Plug-In . SVG Version: 6.00 Build 0)  -->
<svg version="1.1" id="Layer_1" xmlns="http://www.w3.org/2000/svg" xmlns:xlink="http://www.w3.org/1999/xlink" x="0px" y="0px"
	 viewBox="0 0 238 171" style="enable-background:new 0 0 238 171;" xml:space="preserve">
<style type="text/css">
	.st0{fill-rule:evenodd;clip-rule:evenodd;fill:#FF0000;}
	.st1{fill-rule:evenodd;clip-rule:evenodd;fill:#0070C0;}
	.st2{fill-rule:evenodd;clip-rule:evenodd;fill:#00B050;}
</style>
<g>
	<polygon class="st0" points="82.2,107 48.1,65.5 81.4,30.6 61.7,6.7 7.2,63.7 7.3,63.8 7.2,63.9 41.3,105.3 7.6,140.6 27.3,164.6 
		82.2,107.2 82.1,107.1 	"/>
	<polygon class="st1" points="156.5,107 122.3,65.5 155.7,30.6 136,6.7 81.5,63.7 81.5,63.8 81.4,63.9 115.6,105.3 81.8,140.6 
		101.5,164.6 156.4,107.2 156.4,107.1 	"/>
	<polygon class="st2" points="234.3,107 200.1,65.5 233.5,30.6 213.8,6.7 159.3,63.7 159.3,63.8 159.2,63.9 193.4,105.3 
		159.6,140.6 179.3,164.6 234.2,107.2 234.2,107.1 	"/>
</g>
</svg>
